# xmcd
#
# Track frame offsets:
# 150
# 13430
# 30096
# 47591
# 70972
# 88689
# 102466
# 111140
# 129456
# 144244
# 156633
# 179527
# 192332
# 206404
# 221045
# 236852
# 259222
# 275628
#
# Disc length: 4015 seconds
#
#
# Revision: 0
# Processed by: cddbd v1.5.2PL0 Copyright (c) Steve Scherf et al.
# Submitted via: FreeRIP 2.96 
#
DISCID=140fad12
DTITLE=Os Monarcas ao Vivo CD do DVD - 
DYEAR=1900
DGENRE=
TTITLE0=Abertura
TTITLE1=Carreira de Mano
TTITLE2=Sistema Antigo
TTITLE3=Erechim Histótia e Canto
TTITLE4=Sonhando na Vaneira
TTITLE5=Não Encosta a Barriguinha
TTITLE6=Aquerenciado
TTITLE7=Brasil de Bombacha
TTITLE8=Tirando o Meu Chapéu Pra Deus
TTITLE9=Rancheira Puladinha
TTITLE10=Bateu Saudade/ Chorar Por Amor Nunca Mais
TTITLE11=Negron Chamamecero/ De Soledade a Porto Alegre
TTITLE12=Vai Que Vai
TTITLE13=Gineteando o Temporal
TTITLE14=O Gaúcho e o Cavalo
TTITLE15=Cheiro de Galpão/ Vaneira Gossa
TTITLE16=O Vento
TTITLE17=A Gaita Gaúcha dos Monarcas
EXTD=
EXTT0=
EXTT1=
EXTT2=
EXTT3=
EXTT4=
EXTT5=
EXTT6=
EXTT7=
EXTT8=
EXTT9=
EXTT10=
EXTT11=
EXTT12=
EXTT13=
EXTT14=
EXTT15=
EXTT16=
EXTT17=
PLAYORDER=
